<mxfile host="app.diagrams.net" modified="2024-04-16T15:21:31.216Z" agent="Mozilla/5.0 (Windows NT 10.0; Win64; x64) AppleWebKit/537.36 (KHTML, like Gecko) Chrome/121.0.0.0 Safari/537.36 OPR/107.0.0.0" version="24.2.3" etag="6i2fPY7hpL-keLPOKyty" type="github">
  <diagram name="Страница — 1" id="rtVLXlETgx1MIm572FwN">
    <mxGraphModel>
      <root>
        <mxCell id="0" />
        <mxCell id="1" parent="0" />
      </root>
    </mxGraphModel>
  </diagram>
</mxfile>
